<svg width="868" height="943" viewBox="0 0 868 943" fill="none" xmlns="http://www.w3.org/2000/svg">
<path d="M320.04 757.276C384.672 832.419 483.613 862.402 566.122 824.137C649.783 785.339 690.797 688.318 673.363 589" stroke="#E5E5E5" stroke-width="33.7038"/>
<path d="M55.5682 173.947C46.7694 176.981 42.096 186.573 45.1297 195.372C48.1635 204.17 57.7556 208.844 66.5543 205.81L61.0612 189.878L55.5682 173.947ZM259.043 285.717L272.778 275.954C256.172 252.593 226.003 219.74 188.585 196.261C151.247 172.832 104.072 157.223 55.5682 173.947L61.0612 189.878L66.5543 205.81C101.483 193.767 137.685 204.111 170.671 224.81C203.578 245.459 230.684 274.909 245.308 295.481L259.043 285.717Z" fill="#E5E5E5"/>
<path d="M398.341 14.9833C406.341 10.2266 416.682 12.8556 421.438 20.8553C426.195 28.855 423.566 39.1961 415.566 43.9528L406.954 29.468L398.341 14.9833ZM352.217 242.507L335.891 246.685C328.786 218.918 323.197 174.666 329.446 130.936C335.682 87.2985 354.241 41.2051 398.341 14.9833L406.954 29.468L415.566 43.9528C383.809 62.8356 368.32 97.1521 362.811 135.704C357.315 174.162 362.286 213.878 368.543 238.33L352.217 242.507Z" fill="#E5E5E5"/>
<path d="M576.326 867.326C583.612 873.39 594.67 868.261 594.748 858.783L595.153 809.18C595.22 800.932 586.674 795.426 579.192 798.896L540.661 816.765C533.179 820.235 531.861 830.316 538.2 835.592L576.326 867.326Z" fill="#E5E5E5"/>
<path d="M577.259 573.935C537.022 623.613 436.527 671.769 370.49 669.827L330.164 756.766L357.818 779.611C383.462 778.058 451.598 767.137 518.99 735.884C586.382 704.63 645.541 656.516 666.696 636.366L662.886 594.709L577.259 573.935Z" fill="#E5E5E5" stroke="#E5E5E5" stroke-width="25.2779" stroke-linejoin="round"/>
<path d="M303.89 258.69C386.516 220.371 471.876 242.975 498.463 300.305C525.05 357.634 487.162 437.395 404.536 475.713C321.911 514.031 236.551 491.428 209.964 434.099C183.377 376.769 221.264 297.008 303.89 258.69Z" fill="#E5E5E5" stroke="#E5E5E5" stroke-width="25.2779"/>
<path d="M265.255 780.665C368.461 776.79 413.46 566.219 355.507 457.164C346.186 439.624 324.149 435.192 306.746 444.766C103.455 556.606 21.6203 789.812 265.255 780.665Z" stroke="#E5E5E5" stroke-width="33.7038" stroke-linejoin="round"/>
<path d="M729.396 563.864C659.767 640.143 469.96 538.465 424.151 423.779C416.784 405.333 427.636 385.648 446.186 378.549C662.883 295.616 893.764 383.797 729.396 563.864Z" stroke="#E5E5E5" stroke-width="33.7038" stroke-linejoin="round"/>
</svg>
