<svg width="25" height="24" viewBox="0 0 25 24" fill="none" xmlns="http://www.w3.org/2000/svg">
<path d="M5.77229 13.6561H23.3151C23.7908 13.6561 24.1905 13.4965 24.5142 13.1772C24.8381 12.858 25 12.4637 25 11.9944C25 11.525 24.8381 11.1307 24.5142 10.8115C24.1905 10.4922 23.7908 10.3326 23.3151 10.3326H5.77229L13.3557 2.85184C13.6923 2.51976 13.8624 2.1261 13.866 1.67085C13.8698 1.21584 13.7031 0.821176 13.366 0.486838C13.0286 0.159538 12.6285 -0.00273046 12.1657 3.47491e-05C11.7027 0.00305134 11.3013 0.170472 10.9617 0.502297L0.513355 10.8092C0.344658 10.9779 0.216862 11.1644 0.129965 11.3688C0.0433216 11.5729 0 11.7819 0 11.9959C0 12.2098 0.0433216 12.4186 0.129965 12.6222C0.216862 12.8258 0.344658 13.0116 0.513355 13.1795L10.9831 23.4936C11.3301 23.8312 11.7297 24 12.1818 24C12.6338 24 13.0281 23.8301 13.3644 23.4902C13.7011 23.1576 13.8694 22.7667 13.8694 22.3175C13.8694 21.8683 13.7011 21.4778 13.3644 21.1459L5.77229 13.6561Z" fill="#181818"/>
</svg>
