<svg width="29" height="32" viewBox="0 0 29 32" fill="none" xmlns="http://www.w3.org/2000/svg">
<path d="M7.67577 19.2851C7.20085 19.2851 6.80288 19.1246 6.48187 18.8037C6.16112 18.4827 6.00075 18.0866 6.00075 17.6154C6.00075 17.1439 6.16139 16.7471 6.48266 16.4248C6.80393 16.1023 7.20203 15.941 7.67696 15.941C8.15188 15.941 8.54985 16.1025 8.87086 16.4256C9.19187 16.7486 9.35238 17.1463 9.35238 17.6186C9.35238 18.0877 9.19174 18.4827 8.87047 18.8037C8.54919 19.1246 8.15096 19.2851 7.67577 19.2851ZM14.5755 19.2851C14.1003 19.2851 13.7024 19.1246 13.3816 18.8037C13.0606 18.4827 12.9001 18.0866 12.9001 17.6154C12.9001 17.1439 13.0607 16.7471 13.382 16.4248C13.7033 16.1023 14.1014 15.941 14.5763 15.941C15.0515 15.941 15.4495 16.1025 15.7702 16.4256C16.0912 16.7486 16.2517 17.1463 16.2517 17.6186C16.2517 18.0877 16.0911 18.4827 15.7698 18.8037C15.4485 19.1246 15.0504 19.2851 14.5755 19.2851ZM21.2902 19.2851C20.8153 19.2851 20.4173 19.1246 20.0963 18.8037C19.7753 18.4827 19.6148 18.0866 19.6148 17.6154C19.6148 17.1439 19.7756 16.7471 20.0971 16.4248C20.4184 16.1023 20.8165 15.941 21.2914 15.941C21.7663 15.941 22.1643 16.1025 22.4853 16.4256C22.8063 16.7486 22.9668 17.1463 22.9668 17.6186C22.9668 18.0877 22.8062 18.4827 22.4849 18.8037C22.1634 19.1246 21.7652 19.2851 21.2902 19.2851ZM2.99504 32C2.17802 32 1.47459 31.7066 0.884753 31.1197C0.294918 30.5329 0 29.833 0 29.0201V5.60814C0 4.79368 0.294918 4.0925 0.884753 3.5046C1.47459 2.91643 2.17802 2.62235 2.99504 2.62235H5.14051V1.45454C5.14051 1.04679 5.28283 0.702492 5.56747 0.421652C5.85184 0.14055 6.19828 0 6.60679 0C7.02295 0 7.37374 0.14055 7.65917 0.421652C7.94486 0.702492 8.08771 1.04679 8.08771 1.45454V2.62235H20.906V1.45454C20.906 1.04679 21.0483 0.702492 21.3329 0.421652C21.6173 0.14055 21.9637 0 22.3723 0C22.7881 0 23.1389 0.14055 23.4246 0.421652C23.7103 0.702492 23.8532 1.04679 23.8532 1.45454V2.62235H25.9986C26.8172 2.62235 27.5221 2.91643 28.1133 3.5046C28.7044 4.0925 29 4.79368 29 5.60814V29.0201C29 29.833 28.7044 30.5329 28.1133 31.1197C27.5221 31.7066 26.8172 32 25.9986 32H2.99504ZM2.99504 29.0201H25.9986V12.5941H2.99504V29.0201ZM2.99504 9.97217H25.9986V5.60814H2.99504V9.97217Z" fill="#181818"/>
</svg>
