<svg width="19" height="20" viewBox="0 0 19 20" fill="none" xmlns="http://www.w3.org/2000/svg">
<path d="M3.71655 20C3.05963 20 2.50355 19.7763 2.04831 19.329C1.5929 18.8818 1.36519 18.3356 1.36519 17.6904V3.47421H1.1705C0.842928 3.47421 0.565906 3.36224 0.339438 3.13831C0.113146 2.91439 0 2.64041 0 2.3164C0 1.99239 0.113146 1.71937 0.339438 1.49737C0.565906 1.27554 0.842928 1.16462 1.1705 1.16462H5.81506C5.81506 0.838508 5.92829 0.562878 6.15476 0.337727C6.38105 0.112576 6.65799 0 6.98556 0H11.9943C12.3218 0 12.5989 0.113536 12.8253 0.340608C13.0518 0.567681 13.165 0.842351 13.165 1.16462H17.8295C18.1571 1.16462 18.4341 1.27658 18.6606 1.50051C18.8869 1.72444 19 1.99841 19 2.32243C19 2.64644 18.8869 2.91936 18.6606 3.1412C18.4341 3.3632 18.1571 3.47421 17.8295 3.47421H17.6348V17.6904C17.6348 18.3356 17.4071 18.8818 16.9517 19.329C16.4965 19.7763 15.9404 20 15.2835 20H3.71655ZM15.2835 3.47421H3.71655V17.6904H15.2835V3.47421ZM7.2501 15.6229C7.53854 15.6229 7.78103 15.5248 7.97758 15.3284C8.17412 15.1323 8.27239 14.8949 8.27239 14.6163V6.5161C8.27239 6.2375 8.17262 6.00003 7.97306 5.8037C7.77351 5.60755 7.53217 5.50947 7.24904 5.50947C6.95723 5.50947 6.71217 5.60755 6.51385 5.8037C6.31572 6.00003 6.21665 6.2375 6.21665 6.5161V14.6163C6.21665 14.8949 6.31678 15.1323 6.51704 15.3284C6.7173 15.5248 6.96166 15.6229 7.2501 15.6229ZM11.768 15.6229C12.0518 15.6229 12.2937 15.5248 12.4936 15.3284C12.6935 15.1323 12.7934 14.8949 12.7934 14.6163V6.5161C12.7934 6.2375 12.6928 6.00003 12.4915 5.8037C12.2903 5.60755 12.0468 5.50947 11.7611 5.50947C11.4753 5.50947 11.2315 5.60755 11.0299 5.8037C10.8284 6.00003 10.7276 6.2375 10.7276 6.5161V14.6163C10.7276 14.8949 10.83 15.1323 11.0349 15.3284C11.2399 15.5248 11.4843 15.6229 11.768 15.6229Z" fill="#E13C00"/>
</svg>
