<svg width="11" height="6" viewBox="0 0 11 6" fill="none" xmlns="http://www.w3.org/2000/svg">
<path d="M4.84403 5.73118L0.202293 1.07981C0.137966 1.01509 0.088121 0.945831 0.0527597 0.872026C0.0175865 0.798222 0 0.720728 0 0.639543C0 0.466576 0.0587788 0.316696 0.176336 0.189904C0.293894 0.0633014 0.445026 0 0.629732 0H10.3703C10.555 0 10.7061 0.0641537 10.8237 0.19246C10.9412 0.320955 11 0.470833 11 0.642097C11 0.688461 10.9322 0.834745 10.7966 1.08095L6.15569 5.73118C6.06691 5.8205 5.966 5.88769 5.85295 5.93272C5.73991 5.97757 5.62198 6 5.49915 6C5.37614 6 5.2584 5.97757 5.14592 5.93272C5.03363 5.88769 4.933 5.8205 4.84403 5.73118Z" fill="#181818"/>
</svg>
