<svg width="20" height="20" viewBox="0 0 20 20" fill="none" xmlns="http://www.w3.org/2000/svg">
<path d="M2.32857 17.6536H3.62873L14.6088 6.679L13.3389 5.39228L2.32857 16.3871V17.6536ZM1.172 20C0.841066 20 0.563044 19.8872 0.337933 19.6617C0.112644 19.4363 0 19.158 0 18.8267V16.3999C0 16.0863 0.0615069 15.7827 0.184521 15.489C0.307357 15.1954 0.476988 14.9403 0.693414 14.7238L14.8417 0.570956C15.0203 0.387824 15.2309 0.246927 15.4734 0.148263C15.7157 0.049421 15.9667 0 16.2264 0C16.471 0 16.7143 0.049421 16.9562 0.148263C17.1983 0.246927 17.4218 0.385783 17.6265 0.564834L19.4398 2.34399C19.6303 2.54557 19.7713 2.77005 19.8628 3.01742C19.9543 3.26461 20 3.51438 20 3.76672C20 4.02154 19.9513 4.27246 19.854 4.51948C19.7567 4.76632 19.6186 4.98254 19.4398 5.16816L5.30031 19.3058C5.07733 19.5225 4.82084 19.6923 4.53085 19.8153C4.24087 19.9384 3.93927 20 3.62607 20H1.172ZM13.977 6.02499L13.3389 5.39228L14.6088 6.679L13.977 6.02499Z" fill="#181818"/>
</svg>
