<svg width="28" height="27" viewBox="0 0 28 27" fill="none" xmlns="http://www.w3.org/2000/svg">
<path d="M21.535 15.3631H1.88713C1.35427 15.3631 0.906605 15.1836 0.544134 14.8244C0.181378 14.4652 0 14.0217 0 13.4937C0 12.9657 0.181378 12.5221 0.544134 12.1629C0.906605 11.8038 1.35427 11.6242 1.88713 11.6242H21.535L13.0417 3.20832C12.6646 2.83474 12.4741 2.39186 12.4701 1.8797C12.4659 1.36783 12.6525 0.923823 13.0301 0.547692C13.408 0.17948 13.8561 -0.00307176 14.3744 3.90927e-05C14.893 0.00343275 15.3425 0.191781 15.7229 0.565084L27.425 12.1604C27.614 12.3501 27.7571 12.56 27.8544 12.7899C27.9515 13.0195 28 13.2547 28 13.4954C28 13.736 27.9515 13.9709 27.8544 14.2C27.7571 14.429 27.614 14.638 27.425 14.8269L15.699 26.4303C15.3102 26.8101 14.8627 27 14.3564 27C13.8501 27 13.4086 26.8088 13.0318 26.4265C12.6548 26.0523 12.4663 25.6126 12.4663 25.1072C12.4663 24.6018 12.6548 24.1625 13.0318 23.7892L21.535 15.3631Z" fill="#181818"/>
</svg>
