<svg width="1080" height="1080" viewBox="0 0 1080 1080" fill="none" xmlns="http://www.w3.org/2000/svg">
<g clip-path="url(#clip0_35_3)">
<rect width="1080" height="1080" fill="white"/>
<path d="M0 540C0 241.766 241.766 0 540 0V540H0Z" fill="#2450C9"/>
<path d="M0 540H540V1080C241.766 1080 0 838.234 0 540Z" fill="#2450C9"/>
<path d="M540 540C838.234 540 1080 781.766 1080 1080H540V540Z" fill="#2450C9"/>
<path d="M963.834 205.357C1036.58 297.361 1080 413.608 1080 540H656.64C820.079 499.713 920.791 372.675 963.834 205.357ZM540 0C699.885 0 843.539 69.4876 942.414 179.908C896.942 382.093 767.591 526.5 540 526.5V0ZM745.199 172.799C727.305 172.799 712.799 194.558 712.799 221.399C712.799 232.456 715.263 242.648 719.408 250.814C707.994 252.483 695.621 253.766 683.514 254.396C661.044 255.567 641.85 254.348 631.283 250.649C623.58 247.954 615.149 252.013 612.452 259.717C609.756 267.421 613.816 275.851 621.52 278.548C637.952 284.299 662.184 285.106 685.052 283.914C708.506 282.692 733.006 279.208 751.266 274.939C757.44 273.496 761.796 268.376 762.562 262.437C771.6 253.814 777.6 238.658 777.6 221.399C777.6 194.558 763.093 172.799 745.199 172.799Z" fill="#2450C9"/>
</g>
<defs>
<clipPath id="clip0_35_3">
<rect width="1080" height="1080" fill="white"/>
</clipPath>
</defs>
</svg>
