<svg width="24" height="24" viewBox="0 0 24 24" fill="none" xmlns="http://www.w3.org/2000/svg">
<path d="M10.206 13.794H1.78694C1.28696 13.794 0.864146 13.6208 0.518488 13.2743C0.172829 12.9279 0 12.504 0 12.0026C0 11.5013 0.172829 11.079 0.518488 10.7358C0.864146 10.3926 1.28696 10.221 1.78694 10.221H10.206V1.80194C10.206 1.30304 10.3792 0.877928 10.7257 0.526595C11.0721 0.175531 11.496 0 11.9974 0C12.4987 0 12.921 0.175531 13.2642 0.526595C13.6074 0.877928 13.779 1.30304 13.779 1.80194V10.221H22.1981C22.697 10.221 23.1221 10.3942 23.4734 10.7407C23.8245 11.0871 24 11.511 24 12.0124C24 12.5137 23.8245 12.936 23.4734 13.2792C23.1221 13.6224 22.697 13.794 22.1981 13.794H13.779V22.2131C13.779 22.713 13.6058 23.1359 13.2593 23.4815C12.9129 23.8272 12.489 24 11.9876 24C11.4863 24 11.064 23.8272 10.7208 23.4815C10.3776 23.1359 10.206 22.713 10.206 22.2131V13.794Z" fill="white"/>
</svg>
