<svg width="8" height="8" viewBox="0 0 8 8" fill="none" xmlns="http://www.w3.org/2000/svg">
<path d="M4 4.90657L1.09555 7.81102C0.969568 7.93701 0.818472 8 0.642267 8C0.466062 8 0.314967 7.93701 0.18898 7.81102C0.0629934 7.68503 0 7.53394 0 7.35773C0 7.18153 0.0629934 7.03043 0.18898 6.90445L3.09343 4L0.18898 1.09555C0.0629934 0.969568 0 0.818472 0 0.642267C0 0.466062 0.0629934 0.314966 0.18898 0.18898C0.314967 0.0629932 0.466062 0 0.642267 0C0.818472 0 0.969568 0.0629932 1.09555 0.18898L4 3.09343L6.90445 0.18898C7.03043 0.0629932 7.18153 0 7.35773 0C7.53394 0 7.68503 0.0629932 7.81102 0.18898C7.93701 0.314966 8 0.466062 8 0.642267C8 0.818472 7.93701 0.969568 7.81102 1.09555L4.90658 4L7.81102 6.90445C7.93701 7.03043 8 7.18153 8 7.35773C8 7.53394 7.93701 7.68503 7.81102 7.81102C7.68503 7.93701 7.53394 8 7.35773 8C7.18153 8 7.03043 7.93701 6.90445 7.81102L4 4.90657Z" fill="white"/>
</svg>
